<mxfile host="app.diagrams.net" agent="Mozilla/5.0 (Windows NT 10.0; Win64; x64) AppleWebKit/537.36 (KHTML, like Gecko) Chrome/127.0.0.0 Safari/537.36" version="24.7.7" pages="4">
  <diagram name="棒" id="Q0B8d_I_wBMGPhUL-8Yv">
    <mxGraphModel dx="809" dy="504" grid="1" gridSize="10" guides="1" tooltips="1" connect="1" arrows="1" fold="1" page="1" pageScale="1" pageWidth="827" pageHeight="1169" math="0" shadow="0">
      <root>
        <mxCell id="X80pdQtYlKGahfCBtWrk-0" />
        <mxCell id="X80pdQtYlKGahfCBtWrk-1" parent="X80pdQtYlKGahfCBtWrk-0" />
        <mxCell id="ukIYWfPCof5SbtXkis3j-0" value="" style="group" vertex="1" connectable="0" parent="X80pdQtYlKGahfCBtWrk-1">
          <mxGeometry x="160" y="120" width="380" height="212" as="geometry" />
        </mxCell>
        <mxCell id="ukIYWfPCof5SbtXkis3j-1" value="" style="endArrow=none;dashed=1;html=1;dashPattern=1 3;strokeWidth=5;rounded=0;" edge="1" parent="ukIYWfPCof5SbtXkis3j-0">
          <mxGeometry width="50" height="50" relative="1" as="geometry">
            <mxPoint y="160" as="sourcePoint" />
            <mxPoint x="50" y="160" as="targetPoint" />
          </mxGeometry>
        </mxCell>
        <mxCell id="ukIYWfPCof5SbtXkis3j-2" value="" style="endArrow=oval;html=1;rounded=0;startArrow=oval;startFill=1;strokeWidth=3;endFill=1;" edge="1" parent="ukIYWfPCof5SbtXkis3j-0">
          <mxGeometry width="50" height="50" relative="1" as="geometry">
            <mxPoint x="180" y="120" as="sourcePoint" />
            <mxPoint x="180" y="159" as="targetPoint" />
          </mxGeometry>
        </mxCell>
        <mxCell id="ukIYWfPCof5SbtXkis3j-3" value="" style="endArrow=none;html=1;rounded=0;startArrow=oval;startFill=1;strokeWidth=3;" edge="1" parent="ukIYWfPCof5SbtXkis3j-0">
          <mxGeometry width="50" height="50" relative="1" as="geometry">
            <mxPoint x="260" y="80" as="sourcePoint" />
            <mxPoint x="260" y="120" as="targetPoint" />
          </mxGeometry>
        </mxCell>
        <mxCell id="ukIYWfPCof5SbtXkis3j-4" value="" style="endArrow=oval;html=1;rounded=0;startArrow=oval;startFill=1;strokeWidth=3;endFill=1;" edge="1" parent="ukIYWfPCof5SbtXkis3j-0">
          <mxGeometry width="50" height="50" relative="1" as="geometry">
            <mxPoint x="100" y="120" as="sourcePoint" />
            <mxPoint x="100" y="160" as="targetPoint" />
          </mxGeometry>
        </mxCell>
        <mxCell id="ukIYWfPCof5SbtXkis3j-5" value="" style="endArrow=oval;html=1;rounded=0;startArrow=oval;startFill=1;strokeWidth=3;endFill=1;" edge="1" parent="ukIYWfPCof5SbtXkis3j-0">
          <mxGeometry width="50" height="50" relative="1" as="geometry">
            <mxPoint x="260" y="120" as="sourcePoint" />
            <mxPoint x="260" y="160" as="targetPoint" />
          </mxGeometry>
        </mxCell>
        <mxCell id="ukIYWfPCof5SbtXkis3j-6" value="" style="endArrow=none;html=1;rounded=0;startArrow=oval;startFill=1;strokeWidth=3;" edge="1" parent="ukIYWfPCof5SbtXkis3j-0">
          <mxGeometry width="50" height="50" relative="1" as="geometry">
            <mxPoint x="180" y="80" as="sourcePoint" />
            <mxPoint x="180" y="120" as="targetPoint" />
          </mxGeometry>
        </mxCell>
        <mxCell id="ukIYWfPCof5SbtXkis3j-7" value="" style="endArrow=none;html=1;rounded=0;startArrow=oval;startFill=1;strokeWidth=3;" edge="1" parent="ukIYWfPCof5SbtXkis3j-0">
          <mxGeometry width="50" height="50" relative="1" as="geometry">
            <mxPoint x="260" y="40" as="sourcePoint" />
            <mxPoint x="260" y="80" as="targetPoint" />
          </mxGeometry>
        </mxCell>
        <mxCell id="ukIYWfPCof5SbtXkis3j-8" value="" style="endArrow=none;html=1;rounded=0;startArrow=oval;startFill=1;strokeWidth=3;" edge="1" parent="ukIYWfPCof5SbtXkis3j-0">
          <mxGeometry width="50" height="50" relative="1" as="geometry">
            <mxPoint x="340" y="40" as="sourcePoint" />
            <mxPoint x="340" y="80" as="targetPoint" />
          </mxGeometry>
        </mxCell>
        <mxCell id="ukIYWfPCof5SbtXkis3j-9" value="" style="endArrow=none;html=1;rounded=0;startArrow=oval;startFill=1;strokeWidth=3;" edge="1" parent="ukIYWfPCof5SbtXkis3j-0">
          <mxGeometry width="50" height="50" relative="1" as="geometry">
            <mxPoint x="340" as="sourcePoint" />
            <mxPoint x="340" y="40" as="targetPoint" />
          </mxGeometry>
        </mxCell>
        <mxCell id="ukIYWfPCof5SbtXkis3j-10" value="" style="endArrow=oval;html=1;rounded=0;startArrow=oval;startFill=1;strokeWidth=3;endFill=1;" edge="1" parent="ukIYWfPCof5SbtXkis3j-0">
          <mxGeometry width="50" height="50" relative="1" as="geometry">
            <mxPoint x="340" y="120" as="sourcePoint" />
            <mxPoint x="340" y="160" as="targetPoint" />
          </mxGeometry>
        </mxCell>
        <mxCell id="ukIYWfPCof5SbtXkis3j-11" value="" style="endArrow=none;html=1;rounded=0;startArrow=oval;startFill=1;strokeWidth=3;" edge="1" parent="ukIYWfPCof5SbtXkis3j-0">
          <mxGeometry width="50" height="50" relative="1" as="geometry">
            <mxPoint x="340" y="80" as="sourcePoint" />
            <mxPoint x="340" y="120" as="targetPoint" />
          </mxGeometry>
        </mxCell>
        <mxCell id="ukIYWfPCof5SbtXkis3j-12" value="&lt;span style=&quot;font-size: 20px;&quot;&gt;1&lt;/span&gt;" style="text;html=1;align=center;verticalAlign=middle;whiteSpace=wrap;rounded=0;" vertex="1" parent="ukIYWfPCof5SbtXkis3j-0">
          <mxGeometry x="90" y="173" width="20" height="30" as="geometry" />
        </mxCell>
        <mxCell id="ukIYWfPCof5SbtXkis3j-13" value="&lt;span style=&quot;font-size: 20px;&quot;&gt;2&lt;/span&gt;&lt;span style=&quot;color: rgba(0, 0, 0, 0); font-family: monospace; font-size: 0px; text-align: start; text-wrap: nowrap;&quot;&gt;%3CmxGraphModel%3E%3Croot%3E%3CmxCell%20id%3D%220%22%2F%3E%3CmxCell%20id%3D%221%22%20parent%3D%220%22%2F%3E%3CmxCell%20id%3D%222%22%20value%3D%22%26lt%3Bspan%20style%3D%26quot%3Bfont-size%3A%2020px%3B%26quot%3B%26gt%3B1%26lt%3B%2Fspan%26gt%3B%22%20style%3D%22text%3Bhtml%3D1%3Balign%3Dcenter%3BverticalAlign%3Dmiddle%3BwhiteSpace%3Dwrap%3Brounded%3D0%3B%22%20vertex%3D%221%22%20parent%3D%221%22%3E%3CmxGeometry%20x%3D%2230%22%20y%3D%22190%22%20width%3D%2220%22%20height%3D%2230%22%20as%3D%22geometry%22%2F%3E%3C%2FmxCell%3E%3C%2Froot%3E%3C%2FmxGraphModel%3E&lt;/span&gt;" style="text;html=1;align=center;verticalAlign=middle;whiteSpace=wrap;rounded=0;" vertex="1" parent="ukIYWfPCof5SbtXkis3j-0">
          <mxGeometry x="170" y="173" width="20" height="30" as="geometry" />
        </mxCell>
        <mxCell id="ukIYWfPCof5SbtXkis3j-14" value="&lt;span style=&quot;font-size: 20px;&quot;&gt;3&lt;/span&gt;" style="text;html=1;align=center;verticalAlign=middle;whiteSpace=wrap;rounded=0;" vertex="1" parent="ukIYWfPCof5SbtXkis3j-0">
          <mxGeometry x="250" y="173" width="20" height="30" as="geometry" />
        </mxCell>
        <mxCell id="ukIYWfPCof5SbtXkis3j-15" value="&lt;span style=&quot;font-size: 20px;&quot;&gt;4&lt;/span&gt;" style="text;html=1;align=center;verticalAlign=middle;whiteSpace=wrap;rounded=0;" vertex="1" parent="ukIYWfPCof5SbtXkis3j-0">
          <mxGeometry x="330" y="173" width="20" height="30" as="geometry" />
        </mxCell>
        <mxCell id="ukIYWfPCof5SbtXkis3j-16" value="" style="ellipse;whiteSpace=wrap;html=1;aspect=fixed;fillColor=#000000;" vertex="1" parent="ukIYWfPCof5SbtXkis3j-0">
          <mxGeometry x="16" y="155" width="10" height="10" as="geometry" />
        </mxCell>
        <mxCell id="ukIYWfPCof5SbtXkis3j-17" value="&lt;span style=&quot;font-size: 20px;&quot;&gt;0&lt;/span&gt;" style="text;html=1;align=center;verticalAlign=middle;whiteSpace=wrap;rounded=0;" vertex="1" parent="ukIYWfPCof5SbtXkis3j-0">
          <mxGeometry x="11" y="173" width="20" height="30" as="geometry" />
        </mxCell>
        <mxCell id="mWucEMe4wK6fgzMsclHR-2" value="" style="endArrow=none;dashed=1;html=1;dashPattern=1 3;strokeWidth=5;rounded=0;" edge="1" parent="ukIYWfPCof5SbtXkis3j-0">
          <mxGeometry width="50" height="50" relative="1" as="geometry">
            <mxPoint x="75" y="159.70999999999998" as="sourcePoint" />
            <mxPoint x="125" y="159.70999999999998" as="targetPoint" />
          </mxGeometry>
        </mxCell>
        <mxCell id="mWucEMe4wK6fgzMsclHR-3" value="" style="endArrow=none;dashed=1;html=1;dashPattern=1 3;strokeWidth=5;rounded=0;" edge="1" parent="ukIYWfPCof5SbtXkis3j-0">
          <mxGeometry width="50" height="50" relative="1" as="geometry">
            <mxPoint x="155" y="159.70999999999998" as="sourcePoint" />
            <mxPoint x="205" y="159.70999999999998" as="targetPoint" />
          </mxGeometry>
        </mxCell>
        <mxCell id="mWucEMe4wK6fgzMsclHR-4" value="" style="endArrow=none;dashed=1;html=1;dashPattern=1 3;strokeWidth=5;rounded=0;" edge="1" parent="ukIYWfPCof5SbtXkis3j-0">
          <mxGeometry width="50" height="50" relative="1" as="geometry">
            <mxPoint x="235" y="159.70999999999998" as="sourcePoint" />
            <mxPoint x="285" y="159.70999999999998" as="targetPoint" />
          </mxGeometry>
        </mxCell>
        <mxCell id="mWucEMe4wK6fgzMsclHR-5" value="" style="endArrow=none;dashed=1;html=1;dashPattern=1 3;strokeWidth=5;rounded=0;" edge="1" parent="ukIYWfPCof5SbtXkis3j-0">
          <mxGeometry width="50" height="50" relative="1" as="geometry">
            <mxPoint x="315" y="159.70999999999998" as="sourcePoint" />
            <mxPoint x="365" y="159.70999999999998" as="targetPoint" />
          </mxGeometry>
        </mxCell>
        <mxCell id="ukIYWfPCof5SbtXkis3j-25" value="" style="group" vertex="1" connectable="0" parent="X80pdQtYlKGahfCBtWrk-1">
          <mxGeometry x="210" y="440" width="280" height="132" as="geometry" />
        </mxCell>
        <mxCell id="X80pdQtYlKGahfCBtWrk-3" value="" style="endArrow=none;dashed=1;html=1;dashPattern=1 3;strokeWidth=5;rounded=0;" parent="ukIYWfPCof5SbtXkis3j-25" edge="1">
          <mxGeometry width="50" height="50" relative="1" as="geometry">
            <mxPoint y="78" as="sourcePoint" />
            <mxPoint x="230" y="78" as="targetPoint" />
          </mxGeometry>
        </mxCell>
        <mxCell id="X80pdQtYlKGahfCBtWrk-4" value="" style="endArrow=oval;html=1;rounded=0;startArrow=oval;startFill=1;strokeWidth=3;endFill=1;" parent="ukIYWfPCof5SbtXkis3j-25" edge="1">
          <mxGeometry width="50" height="50" relative="1" as="geometry">
            <mxPoint x="110" y="40" as="sourcePoint" />
            <mxPoint x="110" y="79" as="targetPoint" />
          </mxGeometry>
        </mxCell>
        <mxCell id="X80pdQtYlKGahfCBtWrk-9" value="" style="endArrow=none;html=1;rounded=0;startArrow=oval;startFill=1;strokeWidth=3;" parent="ukIYWfPCof5SbtXkis3j-25" edge="1">
          <mxGeometry width="50" height="50" relative="1" as="geometry">
            <mxPoint x="190" as="sourcePoint" />
            <mxPoint x="190" y="40" as="targetPoint" />
          </mxGeometry>
        </mxCell>
        <mxCell id="X80pdQtYlKGahfCBtWrk-10" value="" style="endArrow=oval;html=1;rounded=0;startArrow=oval;startFill=1;strokeWidth=3;endFill=1;" parent="ukIYWfPCof5SbtXkis3j-25" edge="1">
          <mxGeometry width="50" height="50" relative="1" as="geometry">
            <mxPoint x="30" y="40" as="sourcePoint" />
            <mxPoint x="30" y="80" as="targetPoint" />
          </mxGeometry>
        </mxCell>
        <mxCell id="X80pdQtYlKGahfCBtWrk-12" value="" style="endArrow=oval;html=1;rounded=0;startArrow=oval;startFill=1;strokeWidth=3;endFill=1;" parent="ukIYWfPCof5SbtXkis3j-25" edge="1">
          <mxGeometry width="50" height="50" relative="1" as="geometry">
            <mxPoint x="190" y="40" as="sourcePoint" />
            <mxPoint x="190" y="80" as="targetPoint" />
          </mxGeometry>
        </mxCell>
        <mxCell id="X80pdQtYlKGahfCBtWrk-54" value="&lt;span style=&quot;font-size: 20px;&quot;&gt;1&lt;/span&gt;" style="text;html=1;align=center;verticalAlign=middle;whiteSpace=wrap;rounded=0;" parent="ukIYWfPCof5SbtXkis3j-25" vertex="1">
          <mxGeometry x="20" y="92" width="20" height="30" as="geometry" />
        </mxCell>
        <mxCell id="VwEjaoj5E7Uhh9IsRLUt-9" value="&lt;span style=&quot;font-size: 20px;&quot;&gt;1&lt;/span&gt;" style="text;html=1;align=center;verticalAlign=middle;whiteSpace=wrap;rounded=0;" parent="ukIYWfPCof5SbtXkis3j-25" vertex="1">
          <mxGeometry x="100" y="92" width="20" height="30" as="geometry" />
        </mxCell>
        <mxCell id="VwEjaoj5E7Uhh9IsRLUt-10" value="&lt;span style=&quot;font-size: 20px;&quot;&gt;2&lt;/span&gt;" style="text;html=1;align=center;verticalAlign=middle;whiteSpace=wrap;rounded=0;" parent="ukIYWfPCof5SbtXkis3j-25" vertex="1">
          <mxGeometry x="180" y="92" width="20" height="30" as="geometry" />
        </mxCell>
        <mxCell id="ukIYWfPCof5SbtXkis3j-21" value="&lt;font style=&quot;font-size: 15px;&quot;&gt;xor&lt;/font&gt;" style="text;html=1;align=center;verticalAlign=middle;whiteSpace=wrap;rounded=0;" vertex="1" parent="ukIYWfPCof5SbtXkis3j-25">
          <mxGeometry x="50" y="98.5" width="40" height="17" as="geometry" />
        </mxCell>
        <mxCell id="ukIYWfPCof5SbtXkis3j-22" value="&lt;font style=&quot;font-size: 15px;&quot;&gt;xor&lt;/font&gt;" style="text;html=1;align=center;verticalAlign=middle;whiteSpace=wrap;rounded=0;" vertex="1" parent="ukIYWfPCof5SbtXkis3j-25">
          <mxGeometry x="130" y="98.5" width="40" height="17" as="geometry" />
        </mxCell>
        <mxCell id="ukIYWfPCof5SbtXkis3j-23" value="&lt;font style=&quot;font-size: 15px;&quot;&gt;=&lt;/font&gt;" style="text;html=1;align=center;verticalAlign=middle;whiteSpace=wrap;rounded=0;" vertex="1" parent="ukIYWfPCof5SbtXkis3j-25">
          <mxGeometry x="210" y="98.5" width="40" height="17" as="geometry" />
        </mxCell>
        <mxCell id="ukIYWfPCof5SbtXkis3j-24" value="&lt;span style=&quot;font-size: 20px;&quot;&gt;2&lt;/span&gt;" style="text;html=1;align=center;verticalAlign=middle;whiteSpace=wrap;rounded=0;" vertex="1" parent="ukIYWfPCof5SbtXkis3j-25">
          <mxGeometry x="260" y="92" width="20" height="30" as="geometry" />
        </mxCell>
      </root>
    </mxGraphModel>
  </diagram>
  <diagram name="地上の節点の移動" id="ktuTHYBlS0-MR74ZDLMo">
    <mxGraphModel dx="1646" dy="882" grid="1" gridSize="10" guides="1" tooltips="1" connect="1" arrows="1" fold="1" page="1" pageScale="1" pageWidth="1169" pageHeight="827" math="0" shadow="0">
      <root>
        <mxCell id="Lh6EYMdBlO50aBmqSYF7-0" />
        <mxCell id="Lh6EYMdBlO50aBmqSYF7-1" parent="Lh6EYMdBlO50aBmqSYF7-0" />
        <mxCell id="xD5cIe1BU-qo6KnAQYej-0" value="" style="group" vertex="1" connectable="0" parent="Lh6EYMdBlO50aBmqSYF7-1">
          <mxGeometry x="40" y="360" width="450" height="80" as="geometry" />
        </mxCell>
        <mxCell id="Lh6EYMdBlO50aBmqSYF7-2" value="" style="endArrow=none;dashed=1;html=1;dashPattern=1 3;strokeWidth=5;rounded=0;" parent="xD5cIe1BU-qo6KnAQYej-0" edge="1">
          <mxGeometry width="50" height="50" relative="1" as="geometry">
            <mxPoint y="80" as="sourcePoint" />
            <mxPoint x="160" y="80" as="targetPoint" />
          </mxGeometry>
        </mxCell>
        <mxCell id="Lh6EYMdBlO50aBmqSYF7-4" value="" style="endArrow=none;html=1;rounded=0;startArrow=oval;startFill=1;strokeWidth=3;" parent="xD5cIe1BU-qo6KnAQYej-0" edge="1">
          <mxGeometry width="50" height="50" relative="1" as="geometry">
            <mxPoint x="40" y="40" as="sourcePoint" />
            <mxPoint x="120" y="40" as="targetPoint" />
          </mxGeometry>
        </mxCell>
        <mxCell id="Lh6EYMdBlO50aBmqSYF7-5" value="" style="endArrow=oval;html=1;rounded=0;startArrow=oval;startFill=1;strokeWidth=3;endFill=1;" parent="xD5cIe1BU-qo6KnAQYej-0" edge="1">
          <mxGeometry width="50" height="50" relative="1" as="geometry">
            <mxPoint x="40" y="40" as="sourcePoint" />
            <mxPoint x="80" y="80" as="targetPoint" />
          </mxGeometry>
        </mxCell>
        <mxCell id="Lh6EYMdBlO50aBmqSYF7-6" value="" style="endArrow=oval;html=1;rounded=0;startArrow=oval;startFill=1;strokeWidth=3;endFill=1;" parent="xD5cIe1BU-qo6KnAQYej-0" edge="1">
          <mxGeometry width="50" height="50" relative="1" as="geometry">
            <mxPoint x="120" y="40" as="sourcePoint" />
            <mxPoint x="80" y="80" as="targetPoint" />
          </mxGeometry>
        </mxCell>
        <mxCell id="J3tKqs3cB13npKxPyhz--6" value="" style="endArrow=none;dashed=1;html=1;dashPattern=1 3;strokeWidth=5;rounded=0;" parent="xD5cIe1BU-qo6KnAQYej-0" edge="1">
          <mxGeometry width="50" height="50" relative="1" as="geometry">
            <mxPoint x="260" y="80" as="sourcePoint" />
            <mxPoint x="450" y="80" as="targetPoint" />
          </mxGeometry>
        </mxCell>
        <mxCell id="J3tKqs3cB13npKxPyhz--8" value="" style="endArrow=none;html=1;rounded=0;startArrow=oval;startFill=1;strokeWidth=3;" parent="xD5cIe1BU-qo6KnAQYej-0" edge="1">
          <mxGeometry width="50" height="50" relative="1" as="geometry">
            <mxPoint x="320" y="39.5" as="sourcePoint" />
            <mxPoint x="400" y="39.5" as="targetPoint" />
          </mxGeometry>
        </mxCell>
        <mxCell id="J3tKqs3cB13npKxPyhz--9" value="" style="endArrow=oval;html=1;rounded=0;startArrow=oval;startFill=1;strokeWidth=3;endFill=1;" parent="xD5cIe1BU-qo6KnAQYej-0" edge="1">
          <mxGeometry width="50" height="50" relative="1" as="geometry">
            <mxPoint x="320" y="40" as="sourcePoint" />
            <mxPoint x="320" y="80" as="targetPoint" />
          </mxGeometry>
        </mxCell>
        <mxCell id="J3tKqs3cB13npKxPyhz--10" value="" style="endArrow=oval;html=1;rounded=0;startArrow=oval;startFill=1;strokeWidth=3;endFill=1;" parent="xD5cIe1BU-qo6KnAQYej-0" edge="1">
          <mxGeometry width="50" height="50" relative="1" as="geometry">
            <mxPoint x="400" y="40" as="sourcePoint" />
            <mxPoint x="400" y="80" as="targetPoint" />
          </mxGeometry>
        </mxCell>
        <mxCell id="H1NE8-PrQ3KYU4c0KYyp-0" value="" style="shape=flexArrow;endArrow=classic;html=1;rounded=0;width=16;endSize=6.33;" edge="1" parent="xD5cIe1BU-qo6KnAQYej-0">
          <mxGeometry width="50" height="50" relative="1" as="geometry">
            <mxPoint x="180" y="40" as="sourcePoint" />
            <mxPoint x="230" y="40" as="targetPoint" />
          </mxGeometry>
        </mxCell>
        <mxCell id="dwMuI5DipAleln6dha4f-0" value="" style="group" vertex="1" connectable="0" parent="Lh6EYMdBlO50aBmqSYF7-1">
          <mxGeometry x="40" y="201" width="450" height="80" as="geometry" />
        </mxCell>
        <mxCell id="dwMuI5DipAleln6dha4f-1" value="" style="endArrow=none;dashed=1;html=1;dashPattern=1 3;strokeWidth=5;rounded=0;" edge="1" parent="dwMuI5DipAleln6dha4f-0">
          <mxGeometry width="50" height="50" relative="1" as="geometry">
            <mxPoint y="80" as="sourcePoint" />
            <mxPoint x="160" y="80" as="targetPoint" />
          </mxGeometry>
        </mxCell>
        <mxCell id="dwMuI5DipAleln6dha4f-2" value="" style="endArrow=oval;html=1;rounded=0;startArrow=oval;startFill=1;strokeWidth=3;endFill=1;" edge="1" parent="dwMuI5DipAleln6dha4f-0">
          <mxGeometry width="50" height="50" relative="1" as="geometry">
            <mxPoint x="80" y="39" as="sourcePoint" />
            <mxPoint x="80" y="78" as="targetPoint" />
          </mxGeometry>
        </mxCell>
        <mxCell id="dwMuI5DipAleln6dha4f-3" value="" style="endArrow=none;html=1;rounded=0;startArrow=oval;startFill=1;strokeWidth=3;" edge="1" parent="dwMuI5DipAleln6dha4f-0">
          <mxGeometry width="50" height="50" relative="1" as="geometry">
            <mxPoint x="120" y="-1" as="sourcePoint" />
            <mxPoint x="120" y="39" as="targetPoint" />
          </mxGeometry>
        </mxCell>
        <mxCell id="dwMuI5DipAleln6dha4f-4" value="" style="endArrow=oval;html=1;rounded=0;startArrow=oval;startFill=1;strokeWidth=3;endFill=1;" edge="1" parent="dwMuI5DipAleln6dha4f-0">
          <mxGeometry width="50" height="50" relative="1" as="geometry">
            <mxPoint x="40" y="40" as="sourcePoint" />
            <mxPoint x="80" y="80" as="targetPoint" />
          </mxGeometry>
        </mxCell>
        <mxCell id="dwMuI5DipAleln6dha4f-5" value="" style="endArrow=oval;html=1;rounded=0;startArrow=oval;startFill=1;strokeWidth=3;endFill=1;" edge="1" parent="dwMuI5DipAleln6dha4f-0">
          <mxGeometry width="50" height="50" relative="1" as="geometry">
            <mxPoint x="120" y="39" as="sourcePoint" />
            <mxPoint x="80" y="79" as="targetPoint" />
          </mxGeometry>
        </mxCell>
        <mxCell id="dwMuI5DipAleln6dha4f-6" value="" style="endArrow=none;dashed=1;html=1;dashPattern=1 3;strokeWidth=5;rounded=0;" edge="1" parent="dwMuI5DipAleln6dha4f-0">
          <mxGeometry width="50" height="50" relative="1" as="geometry">
            <mxPoint x="260" y="79" as="sourcePoint" />
            <mxPoint x="450" y="79" as="targetPoint" />
          </mxGeometry>
        </mxCell>
        <mxCell id="dwMuI5DipAleln6dha4f-7" value="" style="endArrow=oval;html=1;rounded=0;startArrow=oval;startFill=1;strokeWidth=3;endFill=1;" edge="1" parent="dwMuI5DipAleln6dha4f-0">
          <mxGeometry width="50" height="50" relative="1" as="geometry">
            <mxPoint x="360" y="39" as="sourcePoint" />
            <mxPoint x="360" y="78" as="targetPoint" />
          </mxGeometry>
        </mxCell>
        <mxCell id="dwMuI5DipAleln6dha4f-8" value="" style="endArrow=none;html=1;rounded=0;startArrow=oval;startFill=1;strokeWidth=3;" edge="1" parent="dwMuI5DipAleln6dha4f-0">
          <mxGeometry width="50" height="50" relative="1" as="geometry">
            <mxPoint x="440" y="-1" as="sourcePoint" />
            <mxPoint x="440" y="39" as="targetPoint" />
          </mxGeometry>
        </mxCell>
        <mxCell id="dwMuI5DipAleln6dha4f-9" value="" style="endArrow=oval;html=1;rounded=0;startArrow=oval;startFill=1;strokeWidth=3;endFill=1;" edge="1" parent="dwMuI5DipAleln6dha4f-0">
          <mxGeometry width="50" height="50" relative="1" as="geometry">
            <mxPoint x="280" y="39" as="sourcePoint" />
            <mxPoint x="320" y="79" as="targetPoint" />
          </mxGeometry>
        </mxCell>
        <mxCell id="dwMuI5DipAleln6dha4f-10" value="" style="endArrow=oval;html=1;rounded=0;startArrow=oval;startFill=1;strokeWidth=3;endFill=1;" edge="1" parent="dwMuI5DipAleln6dha4f-0">
          <mxGeometry width="50" height="50" relative="1" as="geometry">
            <mxPoint x="440" y="39" as="sourcePoint" />
            <mxPoint x="400" y="79" as="targetPoint" />
          </mxGeometry>
        </mxCell>
        <mxCell id="dwMuI5DipAleln6dha4f-11" value="" style="shape=flexArrow;endArrow=classic;html=1;rounded=0;width=16;endSize=6.33;" edge="1" parent="dwMuI5DipAleln6dha4f-0">
          <mxGeometry width="50" height="50" relative="1" as="geometry">
            <mxPoint x="180" y="39" as="sourcePoint" />
            <mxPoint x="230" y="39" as="targetPoint" />
          </mxGeometry>
        </mxCell>
        <mxCell id="pSKp0eF4ytKKHkrIp7UG-0" value="" style="endArrow=none;dashed=1;html=1;dashPattern=1 3;strokeWidth=5;rounded=0;" edge="1" parent="Lh6EYMdBlO50aBmqSYF7-1">
          <mxGeometry width="50" height="50" relative="1" as="geometry">
            <mxPoint x="630" y="279" as="sourcePoint" />
            <mxPoint x="820" y="279" as="targetPoint" />
          </mxGeometry>
        </mxCell>
        <mxCell id="pSKp0eF4ytKKHkrIp7UG-1" value="" style="endArrow=oval;html=1;rounded=0;startArrow=oval;startFill=1;strokeWidth=3;endFill=1;" edge="1" parent="Lh6EYMdBlO50aBmqSYF7-1">
          <mxGeometry width="50" height="50" relative="1" as="geometry">
            <mxPoint x="730" y="239" as="sourcePoint" />
            <mxPoint x="730" y="278" as="targetPoint" />
          </mxGeometry>
        </mxCell>
        <mxCell id="pSKp0eF4ytKKHkrIp7UG-2" value="" style="endArrow=none;html=1;rounded=0;startArrow=oval;startFill=1;strokeWidth=3;" edge="1" parent="Lh6EYMdBlO50aBmqSYF7-1">
          <mxGeometry width="50" height="50" relative="1" as="geometry">
            <mxPoint x="770" y="200" as="sourcePoint" />
            <mxPoint x="770" y="240" as="targetPoint" />
          </mxGeometry>
        </mxCell>
        <mxCell id="pSKp0eF4ytKKHkrIp7UG-3" value="" style="endArrow=oval;html=1;rounded=0;startArrow=oval;startFill=1;strokeWidth=3;endFill=1;" edge="1" parent="Lh6EYMdBlO50aBmqSYF7-1">
          <mxGeometry width="50" height="50" relative="1" as="geometry">
            <mxPoint x="690" y="240" as="sourcePoint" />
            <mxPoint x="690" y="279" as="targetPoint" />
          </mxGeometry>
        </mxCell>
        <mxCell id="pSKp0eF4ytKKHkrIp7UG-4" value="" style="endArrow=oval;html=1;rounded=0;startArrow=oval;startFill=1;strokeWidth=3;endFill=1;" edge="1" parent="Lh6EYMdBlO50aBmqSYF7-1">
          <mxGeometry width="50" height="50" relative="1" as="geometry">
            <mxPoint x="770" y="240" as="sourcePoint" />
            <mxPoint x="770" y="279" as="targetPoint" />
          </mxGeometry>
        </mxCell>
        <mxCell id="pSKp0eF4ytKKHkrIp7UG-5" value="" style="shape=flexArrow;endArrow=classic;html=1;rounded=0;width=16;endSize=6.33;" edge="1" parent="Lh6EYMdBlO50aBmqSYF7-1">
          <mxGeometry width="50" height="50" relative="1" as="geometry">
            <mxPoint x="550" y="239" as="sourcePoint" />
            <mxPoint x="600" y="239" as="targetPoint" />
          </mxGeometry>
        </mxCell>
      </root>
    </mxGraphModel>
  </diagram>
  <diagram name="コロン原理" id="b4rRoeOxA1J84_nO9EEi">
    <mxGraphModel dx="1648" dy="963" grid="1" gridSize="10" guides="1" tooltips="1" connect="1" arrows="1" fold="1" page="1" pageScale="1" pageWidth="827" pageHeight="1169" math="1" shadow="0">
      <root>
        <mxCell id="srEP8DRNejLGshdXC_SW-0" />
        <mxCell id="srEP8DRNejLGshdXC_SW-1" parent="srEP8DRNejLGshdXC_SW-0" />
        <mxCell id="pWaBCkrKYvFcEmNLFcvb-18" value="" style="rounded=1;whiteSpace=wrap;html=1;fillColor=none;strokeWidth=3;strokeColor=#6c8ebf;" parent="srEP8DRNejLGshdXC_SW-1" vertex="1">
          <mxGeometry x="360" y="494" width="190" height="120" as="geometry" />
        </mxCell>
        <mxCell id="SX4vFohqx3YC-p8nQ86h-22" value="" style="group" parent="srEP8DRNejLGshdXC_SW-1" vertex="1" connectable="0">
          <mxGeometry x="320" y="120" width="260" height="201" as="geometry" />
        </mxCell>
        <mxCell id="SX4vFohqx3YC-p8nQ86h-8" value="" style="endArrow=oval;html=1;rounded=0;startArrow=oval;startFill=1;strokeWidth=3;endFill=1;" parent="SX4vFohqx3YC-p8nQ86h-22" edge="1">
          <mxGeometry width="50" height="50" relative="1" as="geometry">
            <mxPoint x="80" as="sourcePoint" />
            <mxPoint x="200" y="40" as="targetPoint" />
          </mxGeometry>
        </mxCell>
        <mxCell id="SX4vFohqx3YC-p8nQ86h-10" value="" style="endArrow=oval;html=1;rounded=0;startArrow=oval;startFill=1;strokeWidth=3;endFill=1;" parent="SX4vFohqx3YC-p8nQ86h-22" edge="1">
          <mxGeometry width="50" height="50" relative="1" as="geometry">
            <mxPoint x="200" y="200" as="sourcePoint" />
            <mxPoint x="120" y="120" as="targetPoint" />
          </mxGeometry>
        </mxCell>
        <mxCell id="SX4vFohqx3YC-p8nQ86h-11" value="" style="endArrow=oval;html=1;rounded=0;startArrow=oval;startFill=1;strokeWidth=3;endFill=1;" parent="SX4vFohqx3YC-p8nQ86h-22" edge="1">
          <mxGeometry width="50" height="50" relative="1" as="geometry">
            <mxPoint x="40" y="200" as="sourcePoint" />
            <mxPoint x="120" y="120" as="targetPoint" />
          </mxGeometry>
        </mxCell>
        <mxCell id="SX4vFohqx3YC-p8nQ86h-12" value="" style="endArrow=oval;html=1;rounded=0;startArrow=oval;startFill=1;strokeWidth=3;endFill=1;" parent="SX4vFohqx3YC-p8nQ86h-22" edge="1">
          <mxGeometry width="50" height="50" relative="1" as="geometry">
            <mxPoint x="120" y="120" as="sourcePoint" />
            <mxPoint x="200" y="40" as="targetPoint" />
            <Array as="points">
              <mxPoint x="190" y="50" />
            </Array>
          </mxGeometry>
        </mxCell>
        <mxCell id="SX4vFohqx3YC-p8nQ86h-13" value="" style="endArrow=oval;html=1;rounded=0;startArrow=oval;startFill=1;strokeWidth=3;endFill=1;" parent="SX4vFohqx3YC-p8nQ86h-22" edge="1">
          <mxGeometry width="50" height="50" relative="1" as="geometry">
            <mxPoint x="120" y="120" as="sourcePoint" />
            <mxPoint x="80" as="targetPoint" />
          </mxGeometry>
        </mxCell>
        <mxCell id="SX4vFohqx3YC-p8nQ86h-14" value="&lt;span style=&quot;font-size: 35px;&quot;&gt;G&lt;/span&gt;" style="text;html=1;align=center;verticalAlign=middle;whiteSpace=wrap;rounded=0;fontSize=35;" parent="SX4vFohqx3YC-p8nQ86h-22" vertex="1">
          <mxGeometry x="90" y="150" width="60" height="30" as="geometry" />
        </mxCell>
        <mxCell id="SX4vFohqx3YC-p8nQ86h-15" value="" style="endArrow=none;dashed=1;html=1;dashPattern=1 3;strokeWidth=5;rounded=0;" parent="SX4vFohqx3YC-p8nQ86h-22" edge="1">
          <mxGeometry width="50" height="50" relative="1" as="geometry">
            <mxPoint y="200" as="sourcePoint" />
            <mxPoint x="260" y="201" as="targetPoint" />
          </mxGeometry>
        </mxCell>
        <mxCell id="SX4vFohqx3YC-p8nQ86h-16" value="&lt;font style=&quot;font-size: 25px;&quot;&gt;a&lt;/font&gt;" style="text;strokeColor=none;align=center;fillColor=none;html=1;verticalAlign=middle;whiteSpace=wrap;rounded=0;" parent="SX4vFohqx3YC-p8nQ86h-22" vertex="1">
          <mxGeometry x="70" y="100" width="30" height="30" as="geometry" />
        </mxCell>
        <mxCell id="SX4vFohqx3YC-p8nQ86h-21" value="K" style="text;html=1;align=center;verticalAlign=middle;whiteSpace=wrap;rounded=0;fontSize=35;" parent="SX4vFohqx3YC-p8nQ86h-22" vertex="1">
          <mxGeometry x="120" y="40" width="40" height="30" as="geometry" />
        </mxCell>
        <mxCell id="SX4vFohqx3YC-p8nQ86h-23" value="" style="group" parent="srEP8DRNejLGshdXC_SW-1" vertex="1" connectable="0">
          <mxGeometry x="80" y="160" width="250" height="160" as="geometry" />
        </mxCell>
        <mxCell id="SX4vFohqx3YC-p8nQ86h-0" value="" style="endArrow=none;dashed=1;html=1;dashPattern=1 3;strokeWidth=5;rounded=0;" parent="SX4vFohqx3YC-p8nQ86h-23" edge="1">
          <mxGeometry width="50" height="50" relative="1" as="geometry">
            <mxPoint y="160" as="sourcePoint" />
            <mxPoint x="250" y="160" as="targetPoint" />
          </mxGeometry>
        </mxCell>
        <mxCell id="SX4vFohqx3YC-p8nQ86h-1" value="" style="endArrow=oval;html=1;rounded=0;startArrow=oval;startFill=1;strokeWidth=3;endFill=1;" parent="SX4vFohqx3YC-p8nQ86h-23" edge="1">
          <mxGeometry width="50" height="50" relative="1" as="geometry">
            <mxPoint x="50" y="40" as="sourcePoint" />
            <mxPoint x="130" y="80" as="targetPoint" />
          </mxGeometry>
        </mxCell>
        <mxCell id="SX4vFohqx3YC-p8nQ86h-3" value="" style="endArrow=oval;html=1;rounded=0;startArrow=oval;startFill=1;strokeWidth=3;endFill=1;" parent="SX4vFohqx3YC-p8nQ86h-23" edge="1">
          <mxGeometry width="50" height="50" relative="1" as="geometry">
            <mxPoint x="210" y="160" as="sourcePoint" />
            <mxPoint x="130" y="80" as="targetPoint" />
          </mxGeometry>
        </mxCell>
        <mxCell id="SX4vFohqx3YC-p8nQ86h-4" value="" style="endArrow=oval;html=1;rounded=0;startArrow=oval;startFill=1;strokeWidth=3;endFill=1;" parent="SX4vFohqx3YC-p8nQ86h-23" edge="1">
          <mxGeometry width="50" height="50" relative="1" as="geometry">
            <mxPoint x="50" y="160" as="sourcePoint" />
            <mxPoint x="130" y="80" as="targetPoint" />
          </mxGeometry>
        </mxCell>
        <mxCell id="SX4vFohqx3YC-p8nQ86h-5" value="" style="endArrow=oval;html=1;rounded=0;startArrow=oval;startFill=1;strokeWidth=3;endFill=1;" parent="SX4vFohqx3YC-p8nQ86h-23" edge="1">
          <mxGeometry width="50" height="50" relative="1" as="geometry">
            <mxPoint x="130" y="80" as="sourcePoint" />
            <mxPoint x="210" as="targetPoint" />
          </mxGeometry>
        </mxCell>
        <mxCell id="SX4vFohqx3YC-p8nQ86h-6" value="" style="endArrow=oval;html=1;rounded=0;startArrow=oval;startFill=1;strokeWidth=3;endFill=1;" parent="SX4vFohqx3YC-p8nQ86h-23" edge="1">
          <mxGeometry width="50" height="50" relative="1" as="geometry">
            <mxPoint x="50" y="40" as="sourcePoint" />
            <mxPoint x="210" as="targetPoint" />
          </mxGeometry>
        </mxCell>
        <mxCell id="SX4vFohqx3YC-p8nQ86h-7" value="&lt;span style=&quot;font-size: 35px;&quot;&gt;G&lt;/span&gt;" style="text;html=1;align=center;verticalAlign=middle;whiteSpace=wrap;rounded=0;fontSize=35;" parent="SX4vFohqx3YC-p8nQ86h-23" vertex="1">
          <mxGeometry x="100" y="110" width="60" height="30" as="geometry" />
        </mxCell>
        <mxCell id="SX4vFohqx3YC-p8nQ86h-17" value="&lt;font style=&quot;font-size: 25px;&quot;&gt;a&lt;/font&gt;" style="text;strokeColor=none;align=center;fillColor=none;html=1;verticalAlign=middle;whiteSpace=wrap;rounded=0;" parent="SX4vFohqx3YC-p8nQ86h-23" vertex="1">
          <mxGeometry x="80" y="60" width="30" height="30" as="geometry" />
        </mxCell>
        <mxCell id="SX4vFohqx3YC-p8nQ86h-20" value="H" style="text;html=1;align=center;verticalAlign=middle;whiteSpace=wrap;rounded=0;fontSize=35;" parent="SX4vFohqx3YC-p8nQ86h-23" vertex="1">
          <mxGeometry x="100" y="30" width="60" height="30" as="geometry" />
        </mxCell>
        <mxCell id="FgJRYc26nKyF2B8lCbbo-1" value="&lt;span style=&quot;font-size: 15px;&quot;&gt;$$H \cup_a&amp;nbsp; G$$&lt;/span&gt;" style="text;html=1;align=center;verticalAlign=middle;whiteSpace=wrap;rounded=0;" parent="srEP8DRNejLGshdXC_SW-1" vertex="1">
          <mxGeometry x="169" y="340" width="90" height="30" as="geometry" />
        </mxCell>
        <mxCell id="FgJRYc26nKyF2B8lCbbo-22" value="&lt;span style=&quot;font-size: 15px;&quot;&gt;$$K \cup_a&amp;nbsp; G$$&lt;/span&gt;" style="text;html=1;align=center;verticalAlign=middle;whiteSpace=wrap;rounded=0;" parent="srEP8DRNejLGshdXC_SW-1" vertex="1">
          <mxGeometry x="401" y="340" width="90" height="30" as="geometry" />
        </mxCell>
        <mxCell id="R2RFQulH5dXYEa9ATUvv-0" value="" style="endArrow=none;dashed=1;html=1;dashPattern=1 3;strokeWidth=5;rounded=0;" parent="srEP8DRNejLGshdXC_SW-1" edge="1">
          <mxGeometry width="50" height="50" relative="1" as="geometry">
            <mxPoint x="80" y="1120" as="sourcePoint" />
            <mxPoint x="250" y="1120" as="targetPoint" />
          </mxGeometry>
        </mxCell>
        <mxCell id="R2RFQulH5dXYEa9ATUvv-1" value="" style="endArrow=oval;html=1;rounded=0;startArrow=oval;startFill=1;strokeWidth=3;endFill=1;" parent="srEP8DRNejLGshdXC_SW-1" edge="1">
          <mxGeometry width="50" height="50" relative="1" as="geometry">
            <mxPoint x="160" y="1080" as="sourcePoint" />
            <mxPoint x="160" y="1119" as="targetPoint" />
          </mxGeometry>
        </mxCell>
        <mxCell id="R2RFQulH5dXYEa9ATUvv-2" value="" style="endArrow=none;html=1;rounded=0;startArrow=oval;startFill=1;strokeWidth=3;" parent="srEP8DRNejLGshdXC_SW-1" edge="1">
          <mxGeometry width="50" height="50" relative="1" as="geometry">
            <mxPoint x="160" y="1040" as="sourcePoint" />
            <mxPoint x="160" y="1080" as="targetPoint" />
          </mxGeometry>
        </mxCell>
        <mxCell id="R2RFQulH5dXYEa9ATUvv-5" value="" style="endArrow=none;html=1;rounded=0;startArrow=oval;startFill=1;strokeWidth=3;" parent="srEP8DRNejLGshdXC_SW-1" edge="1">
          <mxGeometry width="50" height="50" relative="1" as="geometry">
            <mxPoint x="160" y="1000" as="sourcePoint" />
            <mxPoint x="160" y="1040" as="targetPoint" />
          </mxGeometry>
        </mxCell>
        <mxCell id="R2RFQulH5dXYEa9ATUvv-7" value="&lt;span style=&quot;font-size: 20px;&quot;&gt;a&lt;/span&gt;" style="text;html=1;align=center;verticalAlign=middle;whiteSpace=wrap;rounded=0;" parent="srEP8DRNejLGshdXC_SW-1" vertex="1">
          <mxGeometry x="129" y="1030" width="20" height="30" as="geometry" />
        </mxCell>
        <mxCell id="R2RFQulH5dXYEa9ATUvv-9" value="" style="endArrow=none;html=1;rounded=0;startArrow=oval;startFill=1;strokeWidth=3;" parent="srEP8DRNejLGshdXC_SW-1" edge="1">
          <mxGeometry width="50" height="50" relative="1" as="geometry">
            <mxPoint x="120" y="1000" as="sourcePoint" />
            <mxPoint x="160" y="1040" as="targetPoint" />
          </mxGeometry>
        </mxCell>
        <mxCell id="R2RFQulH5dXYEa9ATUvv-12" value="" style="endArrow=none;html=1;rounded=0;startArrow=oval;startFill=1;strokeWidth=3;" parent="srEP8DRNejLGshdXC_SW-1" edge="1">
          <mxGeometry width="50" height="50" relative="1" as="geometry">
            <mxPoint x="200" y="1000" as="sourcePoint" />
            <mxPoint x="160" y="1040" as="targetPoint" />
          </mxGeometry>
        </mxCell>
        <mxCell id="R2RFQulH5dXYEa9ATUvv-13" value="" style="endArrow=none;html=1;rounded=0;startArrow=oval;startFill=1;strokeWidth=3;" parent="srEP8DRNejLGshdXC_SW-1" edge="1">
          <mxGeometry width="50" height="50" relative="1" as="geometry">
            <mxPoint x="200" y="960" as="sourcePoint" />
            <mxPoint x="200" y="1000" as="targetPoint" />
          </mxGeometry>
        </mxCell>
        <mxCell id="R2RFQulH5dXYEa9ATUvv-15" value="" style="endArrow=none;dashed=1;html=1;dashPattern=1 3;strokeWidth=5;rounded=0;" parent="srEP8DRNejLGshdXC_SW-1" edge="1">
          <mxGeometry width="50" height="50" relative="1" as="geometry">
            <mxPoint x="360" y="1120" as="sourcePoint" />
            <mxPoint x="530" y="1120" as="targetPoint" />
          </mxGeometry>
        </mxCell>
        <mxCell id="R2RFQulH5dXYEa9ATUvv-16" value="" style="endArrow=oval;html=1;rounded=0;startArrow=oval;startFill=1;strokeWidth=3;endFill=1;" parent="srEP8DRNejLGshdXC_SW-1" edge="1">
          <mxGeometry width="50" height="50" relative="1" as="geometry">
            <mxPoint x="440" y="1080" as="sourcePoint" />
            <mxPoint x="440" y="1119" as="targetPoint" />
          </mxGeometry>
        </mxCell>
        <mxCell id="R2RFQulH5dXYEa9ATUvv-18" value="" style="endArrow=none;html=1;rounded=0;startArrow=oval;startFill=1;strokeWidth=3;fillColor=#d80073;strokeColor=#FF0000;" parent="srEP8DRNejLGshdXC_SW-1" edge="1">
          <mxGeometry width="50" height="50" relative="1" as="geometry">
            <mxPoint x="440" y="1000" as="sourcePoint" />
            <mxPoint x="440" y="1040" as="targetPoint" />
          </mxGeometry>
        </mxCell>
        <mxCell id="R2RFQulH5dXYEa9ATUvv-17" value="" style="endArrow=none;html=1;rounded=0;startArrow=oval;startFill=1;strokeWidth=3;" parent="srEP8DRNejLGshdXC_SW-1" edge="1">
          <mxGeometry width="50" height="50" relative="1" as="geometry">
            <mxPoint x="440" y="1040" as="sourcePoint" />
            <mxPoint x="440" y="1080" as="targetPoint" />
          </mxGeometry>
        </mxCell>
        <mxCell id="R2RFQulH5dXYEa9ATUvv-19" value="&lt;span style=&quot;font-size: 20px;&quot;&gt;a&lt;/span&gt;" style="text;html=1;align=center;verticalAlign=middle;whiteSpace=wrap;rounded=0;" parent="srEP8DRNejLGshdXC_SW-1" vertex="1">
          <mxGeometry x="409" y="1030" width="20" height="30" as="geometry" />
        </mxCell>
        <mxCell id="R2RFQulH5dXYEa9ATUvv-22" value="" style="endArrow=none;html=1;rounded=0;startArrow=oval;startFill=1;strokeWidth=3;fillColor=#d80073;strokeColor=#FF0000;" parent="srEP8DRNejLGshdXC_SW-1" edge="1">
          <mxGeometry width="50" height="50" relative="1" as="geometry">
            <mxPoint x="440" y="960" as="sourcePoint" />
            <mxPoint x="440" y="1000" as="targetPoint" />
          </mxGeometry>
        </mxCell>
        <mxCell id="ZSW1Ja0hXOjJ0p2nu56S-0" value="" style="shape=flexArrow;endArrow=classic;html=1;rounded=0;width=16;endSize=6.33;" parent="srEP8DRNejLGshdXC_SW-1" edge="1">
          <mxGeometry width="50" height="50" relative="1" as="geometry">
            <mxPoint x="280" y="1040" as="sourcePoint" />
            <mxPoint x="330" y="1040" as="targetPoint" />
          </mxGeometry>
        </mxCell>
        <mxCell id="aGxVn6OcEggQmWW6E7u6-0" value="" style="endArrow=none;dashed=1;html=1;dashPattern=1 3;strokeWidth=5;rounded=0;" parent="srEP8DRNejLGshdXC_SW-1" edge="1">
          <mxGeometry width="50" height="50" relative="1" as="geometry">
            <mxPoint x="80" y="720" as="sourcePoint" />
            <mxPoint x="250" y="720" as="targetPoint" />
          </mxGeometry>
        </mxCell>
        <mxCell id="aGxVn6OcEggQmWW6E7u6-1" value="" style="endArrow=oval;html=1;rounded=0;startArrow=oval;startFill=1;strokeWidth=3;endFill=1;" parent="srEP8DRNejLGshdXC_SW-1" edge="1">
          <mxGeometry width="50" height="50" relative="1" as="geometry">
            <mxPoint x="160" y="680" as="sourcePoint" />
            <mxPoint x="160" y="719" as="targetPoint" />
          </mxGeometry>
        </mxCell>
        <mxCell id="aGxVn6OcEggQmWW6E7u6-2" value="" style="endArrow=none;html=1;rounded=0;startArrow=oval;startFill=1;strokeWidth=3;" parent="srEP8DRNejLGshdXC_SW-1" edge="1">
          <mxGeometry width="50" height="50" relative="1" as="geometry">
            <mxPoint x="120" y="680" as="sourcePoint" />
            <mxPoint x="160" y="680" as="targetPoint" />
          </mxGeometry>
        </mxCell>
        <mxCell id="aGxVn6OcEggQmWW6E7u6-3" value="" style="endArrow=none;html=1;rounded=0;startArrow=oval;startFill=1;strokeWidth=3;" parent="srEP8DRNejLGshdXC_SW-1" edge="1">
          <mxGeometry width="50" height="50" relative="1" as="geometry">
            <mxPoint x="160" y="620" as="sourcePoint" />
            <mxPoint x="120" y="680" as="targetPoint" />
          </mxGeometry>
        </mxCell>
        <mxCell id="aGxVn6OcEggQmWW6E7u6-4" value="&lt;span style=&quot;font-size: 20px;&quot;&gt;a&lt;/span&gt;" style="text;html=1;align=center;verticalAlign=middle;whiteSpace=wrap;rounded=0;" parent="srEP8DRNejLGshdXC_SW-1" vertex="1">
          <mxGeometry x="129" y="610.27" width="20" height="20" as="geometry" />
        </mxCell>
        <mxCell id="aGxVn6OcEggQmWW6E7u6-5" value="" style="endArrow=none;html=1;rounded=0;startArrow=oval;startFill=1;strokeWidth=3;" parent="srEP8DRNejLGshdXC_SW-1" edge="1">
          <mxGeometry width="50" height="50" relative="1" as="geometry">
            <mxPoint x="160" y="580" as="sourcePoint" />
            <mxPoint x="160" y="620" as="targetPoint" />
          </mxGeometry>
        </mxCell>
        <mxCell id="aGxVn6OcEggQmWW6E7u6-6" value="" style="endArrow=none;html=1;rounded=0;startArrow=oval;startFill=1;strokeWidth=3;" parent="srEP8DRNejLGshdXC_SW-1" edge="1">
          <mxGeometry width="50" height="50" relative="1" as="geometry">
            <mxPoint x="200" y="680" as="sourcePoint" />
            <mxPoint x="160" y="680" as="targetPoint" />
          </mxGeometry>
        </mxCell>
        <mxCell id="aGxVn6OcEggQmWW6E7u6-7" value="" style="endArrow=none;html=1;rounded=0;startArrow=oval;startFill=1;strokeWidth=3;" parent="srEP8DRNejLGshdXC_SW-1" edge="1">
          <mxGeometry width="50" height="50" relative="1" as="geometry">
            <mxPoint x="160" y="620" as="sourcePoint" />
            <mxPoint x="200" y="680" as="targetPoint" />
          </mxGeometry>
        </mxCell>
        <mxCell id="aGxVn6OcEggQmWW6E7u6-14" value="" style="shape=flexArrow;endArrow=classic;html=1;rounded=0;width=16;endSize=6.33;" parent="srEP8DRNejLGshdXC_SW-1" edge="1">
          <mxGeometry width="50" height="50" relative="1" as="geometry">
            <mxPoint x="290" y="640" as="sourcePoint" />
            <mxPoint x="340" y="640" as="targetPoint" />
          </mxGeometry>
        </mxCell>
        <mxCell id="aGxVn6OcEggQmWW6E7u6-16" value="" style="endArrow=none;html=1;rounded=0;startArrow=oval;startFill=1;strokeWidth=3;" parent="srEP8DRNejLGshdXC_SW-1" edge="1">
          <mxGeometry width="50" height="50" relative="1" as="geometry">
            <mxPoint x="200" y="600" as="sourcePoint" />
            <mxPoint x="160" y="580" as="targetPoint" />
          </mxGeometry>
        </mxCell>
        <mxCell id="aGxVn6OcEggQmWW6E7u6-17" value="" style="endArrow=none;html=1;rounded=0;startArrow=oval;startFill=1;strokeWidth=3;" parent="srEP8DRNejLGshdXC_SW-1" edge="1">
          <mxGeometry width="50" height="50" relative="1" as="geometry">
            <mxPoint x="240" y="600" as="sourcePoint" />
            <mxPoint x="200" y="600" as="targetPoint" />
          </mxGeometry>
        </mxCell>
        <mxCell id="aGxVn6OcEggQmWW6E7u6-19" value="" style="ellipse;whiteSpace=wrap;html=1;aspect=fixed;strokeWidth=3;" parent="srEP8DRNejLGshdXC_SW-1" vertex="1">
          <mxGeometry x="135" y="510" width="50" height="50" as="geometry" />
        </mxCell>
        <mxCell id="RJR02GzaFo9b222S0PCN-0" value="" style="ellipse;whiteSpace=wrap;html=1;aspect=fixed;fillColor=#000000;" parent="srEP8DRNejLGshdXC_SW-1" vertex="1">
          <mxGeometry x="155" y="504" width="10" height="10" as="geometry" />
        </mxCell>
        <mxCell id="aGxVn6OcEggQmWW6E7u6-15" value="" style="endArrow=none;html=1;rounded=0;startArrow=oval;startFill=1;strokeWidth=3;" parent="srEP8DRNejLGshdXC_SW-1" edge="1">
          <mxGeometry width="50" height="50" relative="1" as="geometry">
            <mxPoint x="160" y="560" as="sourcePoint" />
            <mxPoint x="160" y="600" as="targetPoint" />
          </mxGeometry>
        </mxCell>
        <mxCell id="RJR02GzaFo9b222S0PCN-4" value="" style="ellipse;whiteSpace=wrap;html=1;strokeWidth=3;rotation=-45;" parent="srEP8DRNejLGshdXC_SW-1" vertex="1">
          <mxGeometry x="223" y="558.73" width="10" height="25" as="geometry" />
        </mxCell>
        <mxCell id="RJR02GzaFo9b222S0PCN-3" value="" style="endArrow=none;html=1;rounded=0;startArrow=oval;startFill=1;strokeWidth=3;" parent="srEP8DRNejLGshdXC_SW-1" edge="1">
          <mxGeometry width="50" height="50" relative="1" as="geometry">
            <mxPoint x="240" y="580" as="sourcePoint" />
            <mxPoint x="240" y="600" as="targetPoint" />
          </mxGeometry>
        </mxCell>
        <mxCell id="RJR02GzaFo9b222S0PCN-5" value="" style="ellipse;whiteSpace=wrap;html=1;strokeWidth=3;rotation=45;" parent="srEP8DRNejLGshdXC_SW-1" vertex="1">
          <mxGeometry x="247" y="557.73" width="10" height="25" as="geometry" />
        </mxCell>
        <mxCell id="pWaBCkrKYvFcEmNLFcvb-0" value="" style="rounded=1;whiteSpace=wrap;html=1;fillColor=none;strokeWidth=3;strokeColor=#6c8ebf;" parent="srEP8DRNejLGshdXC_SW-1" vertex="1">
          <mxGeometry x="80" y="494" width="190" height="120" as="geometry" />
        </mxCell>
        <mxCell id="pWaBCkrKYvFcEmNLFcvb-2" value="" style="endArrow=none;dashed=1;html=1;dashPattern=1 3;strokeWidth=5;rounded=0;" parent="srEP8DRNejLGshdXC_SW-1" edge="1">
          <mxGeometry width="50" height="50" relative="1" as="geometry">
            <mxPoint x="360" y="720" as="sourcePoint" />
            <mxPoint x="530" y="720" as="targetPoint" />
          </mxGeometry>
        </mxCell>
        <mxCell id="pWaBCkrKYvFcEmNLFcvb-3" value="" style="endArrow=oval;html=1;rounded=0;startArrow=oval;startFill=1;strokeWidth=3;endFill=1;" parent="srEP8DRNejLGshdXC_SW-1" edge="1">
          <mxGeometry width="50" height="50" relative="1" as="geometry">
            <mxPoint x="440" y="680" as="sourcePoint" />
            <mxPoint x="440" y="719" as="targetPoint" />
          </mxGeometry>
        </mxCell>
        <mxCell id="pWaBCkrKYvFcEmNLFcvb-4" value="" style="endArrow=none;html=1;rounded=0;startArrow=oval;startFill=1;strokeWidth=3;" parent="srEP8DRNejLGshdXC_SW-1" edge="1">
          <mxGeometry width="50" height="50" relative="1" as="geometry">
            <mxPoint x="400" y="680" as="sourcePoint" />
            <mxPoint x="440" y="680" as="targetPoint" />
          </mxGeometry>
        </mxCell>
        <mxCell id="pWaBCkrKYvFcEmNLFcvb-5" value="" style="endArrow=none;html=1;rounded=0;startArrow=oval;startFill=1;strokeWidth=3;" parent="srEP8DRNejLGshdXC_SW-1" edge="1">
          <mxGeometry width="50" height="50" relative="1" as="geometry">
            <mxPoint x="440" y="620" as="sourcePoint" />
            <mxPoint x="400" y="680" as="targetPoint" />
          </mxGeometry>
        </mxCell>
        <mxCell id="pWaBCkrKYvFcEmNLFcvb-6" value="&lt;span style=&quot;font-size: 20px;&quot;&gt;a&lt;/span&gt;" style="text;html=1;align=center;verticalAlign=middle;whiteSpace=wrap;rounded=0;" parent="srEP8DRNejLGshdXC_SW-1" vertex="1">
          <mxGeometry x="409" y="610.27" width="20" height="20" as="geometry" />
        </mxCell>
        <mxCell id="pWaBCkrKYvFcEmNLFcvb-7" value="" style="endArrow=none;html=1;rounded=0;startArrow=oval;startFill=1;strokeWidth=3;" parent="srEP8DRNejLGshdXC_SW-1" edge="1">
          <mxGeometry width="50" height="50" relative="1" as="geometry">
            <mxPoint x="440" y="590" as="sourcePoint" />
            <mxPoint x="440" y="620" as="targetPoint" />
          </mxGeometry>
        </mxCell>
        <mxCell id="pWaBCkrKYvFcEmNLFcvb-8" value="" style="endArrow=none;html=1;rounded=0;startArrow=oval;startFill=1;strokeWidth=3;" parent="srEP8DRNejLGshdXC_SW-1" edge="1">
          <mxGeometry width="50" height="50" relative="1" as="geometry">
            <mxPoint x="480" y="680" as="sourcePoint" />
            <mxPoint x="440" y="680" as="targetPoint" />
          </mxGeometry>
        </mxCell>
        <mxCell id="pWaBCkrKYvFcEmNLFcvb-9" value="" style="endArrow=none;html=1;rounded=0;startArrow=oval;startFill=1;strokeWidth=3;" parent="srEP8DRNejLGshdXC_SW-1" edge="1">
          <mxGeometry width="50" height="50" relative="1" as="geometry">
            <mxPoint x="440" y="620" as="sourcePoint" />
            <mxPoint x="480" y="680" as="targetPoint" />
          </mxGeometry>
        </mxCell>
        <mxCell id="pWaBCkrKYvFcEmNLFcvb-19" value="" style="endArrow=none;html=1;rounded=0;startArrow=oval;startFill=1;strokeWidth=3;" parent="srEP8DRNejLGshdXC_SW-1" edge="1">
          <mxGeometry width="50" height="50" relative="1" as="geometry">
            <mxPoint x="440" y="558.73" as="sourcePoint" />
            <mxPoint x="440" y="588.73" as="targetPoint" />
          </mxGeometry>
        </mxCell>
        <mxCell id="pWaBCkrKYvFcEmNLFcvb-20" value="" style="endArrow=none;html=1;rounded=0;startArrow=oval;startFill=1;strokeWidth=3;" parent="srEP8DRNejLGshdXC_SW-1" edge="1">
          <mxGeometry width="50" height="50" relative="1" as="geometry">
            <mxPoint x="440" y="527.73" as="sourcePoint" />
            <mxPoint x="440" y="557.73" as="targetPoint" />
          </mxGeometry>
        </mxCell>
        <mxCell id="pWaBCkrKYvFcEmNLFcvb-21" value="H" style="text;html=1;align=center;verticalAlign=middle;whiteSpace=wrap;rounded=0;fontSize=35;" parent="srEP8DRNejLGshdXC_SW-1" vertex="1">
          <mxGeometry x="210" y="504" width="60" height="30" as="geometry" />
        </mxCell>
        <mxCell id="pWaBCkrKYvFcEmNLFcvb-22" value="K" style="text;html=1;align=center;verticalAlign=middle;whiteSpace=wrap;rounded=0;fontSize=35;" parent="srEP8DRNejLGshdXC_SW-1" vertex="1">
          <mxGeometry x="500" y="504" width="40" height="30" as="geometry" />
        </mxCell>
      </root>
    </mxGraphModel>
  </diagram>
  <diagram name="木のグランディ数の例" id="kfPC4nfdtOXF3oPU-vMl">
    <mxGraphModel dx="1206" dy="1061" grid="1" gridSize="10" guides="1" tooltips="1" connect="1" arrows="1" fold="1" page="1" pageScale="1" pageWidth="1169" pageHeight="827" math="0" shadow="0">
      <root>
        <mxCell id="KMHgYJbNfHZNiI4-T-8M-0" />
        <mxCell id="KMHgYJbNfHZNiI4-T-8M-1" parent="KMHgYJbNfHZNiI4-T-8M-0" />
        <mxCell id="KMHgYJbNfHZNiI4-T-8M-13" value="" style="group" vertex="1" connectable="0" parent="KMHgYJbNfHZNiI4-T-8M-1">
          <mxGeometry x="20" y="120" width="260" height="200" as="geometry" />
        </mxCell>
        <mxCell id="KMHgYJbNfHZNiI4-T-8M-14" value="" style="endArrow=none;dashed=1;html=1;dashPattern=1 3;strokeWidth=5;rounded=0;" edge="1" parent="KMHgYJbNfHZNiI4-T-8M-13">
          <mxGeometry width="50" height="50" relative="1" as="geometry">
            <mxPoint y="199" as="sourcePoint" />
            <mxPoint x="220" y="200" as="targetPoint" />
          </mxGeometry>
        </mxCell>
        <mxCell id="KMHgYJbNfHZNiI4-T-8M-15" value="" style="endArrow=oval;html=1;rounded=0;startArrow=oval;startFill=1;strokeWidth=3;endFill=1;" edge="1" parent="KMHgYJbNfHZNiI4-T-8M-13">
          <mxGeometry width="50" height="50" relative="1" as="geometry">
            <mxPoint x="100" y="119" as="sourcePoint" />
            <mxPoint x="100" y="199" as="targetPoint" />
          </mxGeometry>
        </mxCell>
        <mxCell id="KMHgYJbNfHZNiI4-T-8M-16" value="" style="endArrow=none;html=1;rounded=0;startArrow=oval;startFill=1;strokeWidth=3;" edge="1" parent="KMHgYJbNfHZNiI4-T-8M-13">
          <mxGeometry width="50" height="50" relative="1" as="geometry">
            <mxPoint x="20" y="79" as="sourcePoint" />
            <mxPoint x="100" y="119" as="targetPoint" />
          </mxGeometry>
        </mxCell>
        <mxCell id="KMHgYJbNfHZNiI4-T-8M-17" value="" style="endArrow=none;html=1;rounded=0;startArrow=oval;startFill=1;strokeWidth=3;" edge="1" parent="KMHgYJbNfHZNiI4-T-8M-13">
          <mxGeometry width="50" height="50" relative="1" as="geometry">
            <mxPoint x="180" y="79" as="sourcePoint" />
            <mxPoint x="100" y="119" as="targetPoint" />
          </mxGeometry>
        </mxCell>
        <mxCell id="KMHgYJbNfHZNiI4-T-8M-18" value="" style="endArrow=none;html=1;rounded=0;startArrow=oval;startFill=1;strokeWidth=3;" edge="1" parent="KMHgYJbNfHZNiI4-T-8M-13">
          <mxGeometry width="50" height="50" relative="1" as="geometry">
            <mxPoint x="140" y="39" as="sourcePoint" />
            <mxPoint x="180" y="79" as="targetPoint" />
          </mxGeometry>
        </mxCell>
        <mxCell id="KMHgYJbNfHZNiI4-T-8M-19" value="" style="endArrow=none;html=1;rounded=0;startArrow=oval;startFill=1;strokeWidth=3;" edge="1" parent="KMHgYJbNfHZNiI4-T-8M-13">
          <mxGeometry width="50" height="50" relative="1" as="geometry">
            <mxPoint x="220" y="39" as="sourcePoint" />
            <mxPoint x="180" y="79" as="targetPoint" />
          </mxGeometry>
        </mxCell>
        <mxCell id="KMHgYJbNfHZNiI4-T-8M-20" value="" style="endArrow=none;html=1;rounded=0;startArrow=oval;startFill=1;strokeWidth=3;" edge="1" parent="KMHgYJbNfHZNiI4-T-8M-13">
          <mxGeometry width="50" height="50" relative="1" as="geometry">
            <mxPoint x="180" y="160" as="sourcePoint" />
            <mxPoint x="100" y="200" as="targetPoint" />
          </mxGeometry>
        </mxCell>
        <mxCell id="KMHgYJbNfHZNiI4-T-8M-21" value="" style="endArrow=none;html=1;rounded=0;startArrow=oval;startFill=1;strokeWidth=3;" edge="1" parent="KMHgYJbNfHZNiI4-T-8M-13">
          <mxGeometry width="50" height="50" relative="1" as="geometry">
            <mxPoint x="20" y="160" as="sourcePoint" />
            <mxPoint x="100" y="199" as="targetPoint" />
          </mxGeometry>
        </mxCell>
        <mxCell id="KMHgYJbNfHZNiI4-T-8M-22" value="" style="endArrow=none;html=1;rounded=0;startArrow=oval;startFill=1;strokeWidth=3;" edge="1" parent="KMHgYJbNfHZNiI4-T-8M-13">
          <mxGeometry width="50" height="50" relative="1" as="geometry">
            <mxPoint x="220" as="sourcePoint" />
            <mxPoint x="220" y="40" as="targetPoint" />
          </mxGeometry>
        </mxCell>
        <mxCell id="KMHgYJbNfHZNiI4-T-8M-23" value="&lt;font style=&quot;font-size: 20px;&quot;&gt;1&lt;/font&gt;" style="text;html=1;align=center;verticalAlign=middle;whiteSpace=wrap;rounded=0;" vertex="1" parent="KMHgYJbNfHZNiI4-T-8M-13">
          <mxGeometry x="130" y="50" width="20" height="30" as="geometry" />
        </mxCell>
        <mxCell id="KMHgYJbNfHZNiI4-T-8M-24" value="" style="endArrow=none;html=1;rounded=0;startArrow=oval;startFill=1;strokeWidth=3;" edge="1" parent="KMHgYJbNfHZNiI4-T-8M-13">
          <mxGeometry width="50" height="50" relative="1" as="geometry">
            <mxPoint x="20" y="120" as="sourcePoint" />
            <mxPoint x="20" y="160" as="targetPoint" />
          </mxGeometry>
        </mxCell>
        <mxCell id="KMHgYJbNfHZNiI4-T-8M-25" value="&lt;font style=&quot;font-size: 20px;&quot;&gt;a&lt;/font&gt;" style="text;html=1;align=center;verticalAlign=middle;whiteSpace=wrap;rounded=0;" vertex="1" parent="KMHgYJbNfHZNiI4-T-8M-13">
          <mxGeometry x="180" y="70" width="30" height="30" as="geometry" />
        </mxCell>
        <mxCell id="KMHgYJbNfHZNiI4-T-8M-26" value="" style="group" vertex="1" connectable="0" parent="KMHgYJbNfHZNiI4-T-8M-1">
          <mxGeometry x="340" y="120" width="260" height="200" as="geometry" />
        </mxCell>
        <mxCell id="KMHgYJbNfHZNiI4-T-8M-27" value="" style="endArrow=none;dashed=1;html=1;dashPattern=1 3;strokeWidth=5;rounded=0;" edge="1" parent="KMHgYJbNfHZNiI4-T-8M-26">
          <mxGeometry width="50" height="50" relative="1" as="geometry">
            <mxPoint y="199" as="sourcePoint" />
            <mxPoint x="220" y="200" as="targetPoint" />
          </mxGeometry>
        </mxCell>
        <mxCell id="KMHgYJbNfHZNiI4-T-8M-28" value="" style="endArrow=oval;html=1;rounded=0;startArrow=oval;startFill=1;strokeWidth=3;endFill=1;" edge="1" parent="KMHgYJbNfHZNiI4-T-8M-26">
          <mxGeometry width="50" height="50" relative="1" as="geometry">
            <mxPoint x="100" y="119" as="sourcePoint" />
            <mxPoint x="100" y="199" as="targetPoint" />
          </mxGeometry>
        </mxCell>
        <mxCell id="KMHgYJbNfHZNiI4-T-8M-29" value="" style="endArrow=none;html=1;rounded=0;startArrow=oval;startFill=1;strokeWidth=3;" edge="1" parent="KMHgYJbNfHZNiI4-T-8M-26">
          <mxGeometry width="50" height="50" relative="1" as="geometry">
            <mxPoint x="20" y="79" as="sourcePoint" />
            <mxPoint x="100" y="119" as="targetPoint" />
          </mxGeometry>
        </mxCell>
        <mxCell id="KMHgYJbNfHZNiI4-T-8M-30" value="" style="endArrow=none;html=1;rounded=0;startArrow=oval;startFill=1;strokeWidth=3;" edge="1" parent="KMHgYJbNfHZNiI4-T-8M-26">
          <mxGeometry width="50" height="50" relative="1" as="geometry">
            <mxPoint x="180" y="79" as="sourcePoint" />
            <mxPoint x="100" y="119" as="targetPoint" />
          </mxGeometry>
        </mxCell>
        <mxCell id="KMHgYJbNfHZNiI4-T-8M-31" value="" style="endArrow=none;html=1;rounded=0;startArrow=oval;startFill=1;strokeWidth=3;" edge="1" parent="KMHgYJbNfHZNiI4-T-8M-26">
          <mxGeometry width="50" height="50" relative="1" as="geometry">
            <mxPoint x="180" y="160" as="sourcePoint" />
            <mxPoint x="100" y="200" as="targetPoint" />
          </mxGeometry>
        </mxCell>
        <mxCell id="KMHgYJbNfHZNiI4-T-8M-32" value="" style="endArrow=none;html=1;rounded=0;startArrow=oval;startFill=1;strokeWidth=3;" edge="1" parent="KMHgYJbNfHZNiI4-T-8M-26">
          <mxGeometry width="50" height="50" relative="1" as="geometry">
            <mxPoint x="20" y="160" as="sourcePoint" />
            <mxPoint x="100" y="199" as="targetPoint" />
          </mxGeometry>
        </mxCell>
        <mxCell id="KMHgYJbNfHZNiI4-T-8M-33" value="" style="endArrow=none;html=1;rounded=0;startArrow=oval;startFill=1;strokeWidth=3;" edge="1" parent="KMHgYJbNfHZNiI4-T-8M-26">
          <mxGeometry width="50" height="50" relative="1" as="geometry">
            <mxPoint x="180" as="sourcePoint" />
            <mxPoint x="180" y="40" as="targetPoint" />
          </mxGeometry>
        </mxCell>
        <mxCell id="KMHgYJbNfHZNiI4-T-8M-34" value="&lt;font style=&quot;font-size: 20px;&quot;&gt;1&lt;/font&gt;" style="text;html=1;align=center;verticalAlign=middle;whiteSpace=wrap;rounded=0;" vertex="1" parent="KMHgYJbNfHZNiI4-T-8M-26">
          <mxGeometry x="40" y="60" width="20" height="30" as="geometry" />
        </mxCell>
        <mxCell id="KMHgYJbNfHZNiI4-T-8M-35" value="&lt;span style=&quot;font-size: 20px;&quot;&gt;3&lt;/span&gt;" style="text;html=1;align=center;verticalAlign=middle;whiteSpace=wrap;rounded=0;" vertex="1" parent="KMHgYJbNfHZNiI4-T-8M-26">
          <mxGeometry x="200" y="20" width="20" height="30" as="geometry" />
        </mxCell>
        <mxCell id="KMHgYJbNfHZNiI4-T-8M-36" value="" style="endArrow=none;html=1;rounded=0;startArrow=oval;startFill=1;strokeWidth=3;" edge="1" parent="KMHgYJbNfHZNiI4-T-8M-26">
          <mxGeometry width="50" height="50" relative="1" as="geometry">
            <mxPoint x="20" y="120" as="sourcePoint" />
            <mxPoint x="20" y="160" as="targetPoint" />
          </mxGeometry>
        </mxCell>
        <mxCell id="KMHgYJbNfHZNiI4-T-8M-37" value="&lt;span style=&quot;font-size: 20px;&quot;&gt;b&lt;/span&gt;" style="text;html=1;align=center;verticalAlign=middle;whiteSpace=wrap;rounded=0;" vertex="1" parent="KMHgYJbNfHZNiI4-T-8M-26">
          <mxGeometry x="103" y="115" width="30" height="30" as="geometry" />
        </mxCell>
        <mxCell id="KMHgYJbNfHZNiI4-T-8M-38" value="" style="endArrow=none;html=1;rounded=0;startArrow=oval;startFill=1;strokeWidth=3;" edge="1" parent="KMHgYJbNfHZNiI4-T-8M-1">
          <mxGeometry width="50" height="50" relative="1" as="geometry">
            <mxPoint x="520" y="161" as="sourcePoint" />
            <mxPoint x="520" y="201" as="targetPoint" />
          </mxGeometry>
        </mxCell>
        <mxCell id="KMHgYJbNfHZNiI4-T-8M-39" value="" style="endArrow=none;dashed=1;html=1;dashPattern=1 3;strokeWidth=5;rounded=0;" edge="1" parent="KMHgYJbNfHZNiI4-T-8M-1">
          <mxGeometry width="50" height="50" relative="1" as="geometry">
            <mxPoint x="660" y="319" as="sourcePoint" />
            <mxPoint x="880" y="320" as="targetPoint" />
          </mxGeometry>
        </mxCell>
        <mxCell id="KMHgYJbNfHZNiI4-T-8M-40" value="" style="endArrow=oval;html=1;rounded=0;startArrow=oval;startFill=1;strokeWidth=3;endFill=1;" edge="1" parent="KMHgYJbNfHZNiI4-T-8M-1">
          <mxGeometry width="50" height="50" relative="1" as="geometry">
            <mxPoint x="760" y="239" as="sourcePoint" />
            <mxPoint x="760" y="319" as="targetPoint" />
          </mxGeometry>
        </mxCell>
        <mxCell id="KMHgYJbNfHZNiI4-T-8M-41" value="" style="endArrow=none;html=1;rounded=0;startArrow=oval;startFill=1;strokeWidth=3;" edge="1" parent="KMHgYJbNfHZNiI4-T-8M-1">
          <mxGeometry width="50" height="50" relative="1" as="geometry">
            <mxPoint x="760" y="199" as="sourcePoint" />
            <mxPoint x="760" y="239" as="targetPoint" />
          </mxGeometry>
        </mxCell>
        <mxCell id="KMHgYJbNfHZNiI4-T-8M-42" value="" style="endArrow=none;html=1;rounded=0;startArrow=oval;startFill=1;strokeWidth=3;" edge="1" parent="KMHgYJbNfHZNiI4-T-8M-1">
          <mxGeometry width="50" height="50" relative="1" as="geometry">
            <mxPoint x="840" y="280" as="sourcePoint" />
            <mxPoint x="760" y="320" as="targetPoint" />
          </mxGeometry>
        </mxCell>
        <mxCell id="KMHgYJbNfHZNiI4-T-8M-43" value="" style="endArrow=none;html=1;rounded=0;startArrow=oval;startFill=1;strokeWidth=3;" edge="1" parent="KMHgYJbNfHZNiI4-T-8M-1">
          <mxGeometry width="50" height="50" relative="1" as="geometry">
            <mxPoint x="680" y="280" as="sourcePoint" />
            <mxPoint x="760" y="319" as="targetPoint" />
          </mxGeometry>
        </mxCell>
        <mxCell id="KMHgYJbNfHZNiI4-T-8M-44" value="" style="endArrow=none;html=1;rounded=0;startArrow=oval;startFill=1;strokeWidth=3;" edge="1" parent="KMHgYJbNfHZNiI4-T-8M-1">
          <mxGeometry width="50" height="50" relative="1" as="geometry">
            <mxPoint x="760" y="160" as="sourcePoint" />
            <mxPoint x="760" y="200" as="targetPoint" />
          </mxGeometry>
        </mxCell>
        <mxCell id="KMHgYJbNfHZNiI4-T-8M-45" value="&lt;span style=&quot;font-size: 20px;&quot;&gt;3&lt;/span&gt;" style="text;html=1;align=center;verticalAlign=middle;whiteSpace=wrap;rounded=0;" vertex="1" parent="KMHgYJbNfHZNiI4-T-8M-1">
          <mxGeometry x="260" y="80" width="20" height="30" as="geometry" />
        </mxCell>
        <mxCell id="KMHgYJbNfHZNiI4-T-8M-47" value="" style="endArrow=none;html=1;rounded=0;startArrow=oval;startFill=1;strokeWidth=3;" edge="1" parent="KMHgYJbNfHZNiI4-T-8M-1">
          <mxGeometry width="50" height="50" relative="1" as="geometry">
            <mxPoint x="240" y="80" as="sourcePoint" />
            <mxPoint x="240" y="120" as="targetPoint" />
          </mxGeometry>
        </mxCell>
        <mxCell id="KMHgYJbNfHZNiI4-T-8M-49" value="&lt;span style=&quot;font-size: 20px;&quot;&gt;3&lt;/span&gt;" style="text;html=1;align=center;verticalAlign=middle;whiteSpace=wrap;rounded=0;" vertex="1" parent="KMHgYJbNfHZNiI4-T-8M-1">
          <mxGeometry x="780" y="160" width="20" height="30" as="geometry" />
        </mxCell>
        <mxCell id="KMHgYJbNfHZNiI4-T-8M-50" value="&lt;font style=&quot;font-size: 20px;&quot;&gt;1&lt;/font&gt;" style="text;html=1;align=center;verticalAlign=middle;whiteSpace=wrap;rounded=0;" vertex="1" parent="KMHgYJbNfHZNiI4-T-8M-1">
          <mxGeometry x="810" y="250" width="20" height="30" as="geometry" />
        </mxCell>
        <mxCell id="KMHgYJbNfHZNiI4-T-8M-51" value="&lt;span style=&quot;font-size: 20px;&quot;&gt;2&lt;/span&gt;" style="text;html=1;align=center;verticalAlign=middle;whiteSpace=wrap;rounded=0;" vertex="1" parent="KMHgYJbNfHZNiI4-T-8M-1">
          <mxGeometry x="690" y="250" width="20" height="30" as="geometry" />
        </mxCell>
        <mxCell id="KMHgYJbNfHZNiI4-T-8M-52" value="" style="endArrow=none;html=1;rounded=0;startArrow=oval;startFill=1;strokeWidth=3;" edge="1" parent="KMHgYJbNfHZNiI4-T-8M-1">
          <mxGeometry width="50" height="50" relative="1" as="geometry">
            <mxPoint x="680" y="240" as="sourcePoint" />
            <mxPoint x="680" y="280" as="targetPoint" />
          </mxGeometry>
        </mxCell>
        <mxCell id="KMHgYJbNfHZNiI4-T-8M-53" value="" style="endArrow=none;dashed=1;html=1;dashPattern=1 3;strokeWidth=5;rounded=0;" edge="1" parent="KMHgYJbNfHZNiI4-T-8M-1" source="w1a8mAksnt6iOopzDsAO-0">
          <mxGeometry width="50" height="50" relative="1" as="geometry">
            <mxPoint x="980" y="319" as="sourcePoint" />
            <mxPoint x="1200" y="320" as="targetPoint" />
          </mxGeometry>
        </mxCell>
        <mxCell id="KMHgYJbNfHZNiI4-T-8M-61" value="&lt;span style=&quot;font-size: 20px;&quot;&gt;0&lt;/span&gt;" style="text;html=1;align=center;verticalAlign=middle;whiteSpace=wrap;rounded=0;" vertex="1" parent="KMHgYJbNfHZNiI4-T-8M-1">
          <mxGeometry x="1090" y="280" width="20" height="30" as="geometry" />
        </mxCell>
        <mxCell id="KMHgYJbNfHZNiI4-T-8M-62" value="&lt;font style=&quot;font-size: 20px;&quot;&gt;c&lt;/font&gt;" style="text;html=1;align=center;verticalAlign=middle;whiteSpace=wrap;rounded=0;" vertex="1" parent="KMHgYJbNfHZNiI4-T-8M-1">
          <mxGeometry x="756" y="314" width="30" height="30" as="geometry" />
        </mxCell>
        <mxCell id="w1a8mAksnt6iOopzDsAO-2" value="" style="endArrow=none;dashed=1;html=1;dashPattern=1 3;strokeWidth=5;rounded=0;" edge="1" parent="KMHgYJbNfHZNiI4-T-8M-1" target="w1a8mAksnt6iOopzDsAO-0">
          <mxGeometry width="50" height="50" relative="1" as="geometry">
            <mxPoint x="980" y="319" as="sourcePoint" />
            <mxPoint x="1200" y="320" as="targetPoint" />
          </mxGeometry>
        </mxCell>
        <mxCell id="w1a8mAksnt6iOopzDsAO-0" value="" style="ellipse;whiteSpace=wrap;html=1;aspect=fixed;fillColor=#000000;" vertex="1" parent="KMHgYJbNfHZNiI4-T-8M-1">
          <mxGeometry x="1076" y="314" width="10" height="10" as="geometry" />
        </mxCell>
      </root>
    </mxGraphModel>
  </diagram>
</mxfile>
